<svg xmlns="http://www.w3.org/2000/svg" xmlns:xlink="http://www.w3.org/1999/xlink" width="148" height="148" viewBox="0 0 148 148">
    <defs>
        <path id="a" d="M0 143.831h180V0H0z"/>
    </defs>
    <g fill="none" fill-rule="evenodd" transform="translate(-10)">
        <ellipse cx="84.767" cy="142.789" fill="#F2F5F8" rx="73.256" ry="5.211"/>
        <path fill="#D3BBAB" d="M150.698 143.831H50.233l8.372-118.817h92.093z"/>
        <g fill="#FFF">
            <path d="M140.917 73.62a4.812 4.812 0 0 0-.957-1.718 4.548 4.548 0 0 0-1.536-1.137 4.879 4.879 0 0 0-2.064-.416 5.427 5.427 0 0 0-2.331.478 4.866 4.866 0 0 0-1.677 1.28 5.524 5.524 0 0 0-1.021 1.911 7.784 7.784 0 0 0-.343 2.341c-.007.792.106 1.58.333 2.339.069.18.147.356.235.527-.172.115-.36.203-.559.26a3.432 3.432 0 0 1-.772.09 2.015 2.015 0 0 1-.646-.09.825.825 0 0 1-.42-.317 1.615 1.615 0 0 1-.235-.645 6.317 6.317 0 0 1-.075-1.091v-8.729a9.11 9.11 0 0 0-1.505-.131 9.235 9.235 0 0 0-1.526.131v9.39c0 1.398.333 2.408 1 3.03.667.62 1.552.93 2.656.928.274 0 .57-.015.892-.045.277-.019.55-.067.817-.146.66-.18 1.31-.399 1.946-.654.323.22.669.402 1.031.544a7.246 7.246 0 0 0 2.658.43c1.29.021 2.574-.202 3.785-.657a5.5 5.5 0 0 0-.604-2.362 8.411 8.411 0 0 1-1.45.406 8.225 8.225 0 0 1-1.496.143 3.583 3.583 0 0 1-2.15-.592c-.546-.393-.847-1.03-.905-1.911h7.135c.03-.16.055-.375.076-.647.02-.27.033-.543.033-.82a6.914 6.914 0 0 0-.325-2.12zm-6.9 1.432a2.895 2.895 0 0 1 .667-1.727c.372-.409.92-.614 1.643-.614a1.798 1.798 0 0 1 1.475.645c.369.486.568 1.083.568 1.696h-4.354zM124.449 73.543a5.196 5.196 0 0 0-.94-1.782 3.8 3.8 0 0 0-1.43-1.061 4.573 4.573 0 0 0-1.793-.351 3.74 3.74 0 0 0-1.719.382 2.404 2.404 0 0 0-1.075.972v-3a9.205 9.205 0 0 0-1.526-.131 9.078 9.078 0 0 0-1.505.131v12.844c.296.11.597.202.904.275.329.079.674.146 1.033.196.36.05.704.093 1.064.122.359.028.685.043 1 .043a7.835 7.835 0 0 0 2.665-.425 5.549 5.549 0 0 0 1.998-1.214 5.196 5.196 0 0 0 1.247-1.91 7.11 7.11 0 0 0 .43-2.55 8.326 8.326 0 0 0-.353-2.541zm-3.632 5.229c-.53.552-1.262.83-2.193.83-.202 0-.397 0-.59-.02a2.179 2.179 0 0 1-.549-.11v-4.114c0-.831.183-1.44.55-1.827.368-.386.88-.596 1.408-.578.783 0 1.342.273 1.677.819.335.546.5 1.342.495 2.389-.002 1.185-.268 2.054-.798 2.608v.003zM111.822 71.443c-.84-.73-2.004-1.094-3.494-1.094-.59.004-1.179.055-1.76.153-.644.105-1.277.265-1.893.478-.007.403.043.805.15 1.194.116.372.268.73.453 1.072a7.49 7.49 0 0 1 2.472-.458c.328-.002.655.02.98.064.26.034.512.12.74.254.199.124.36.302.469.513.124.266.183.559.171.853v.26a16.307 16.307 0 0 0-1.376-.064c-.578 0-1.155.062-1.72.186a4.992 4.992 0 0 0-1.557.612 3.426 3.426 0 0 0-1.142 1.137 3.29 3.29 0 0 0-.441 1.76c-.02.61.102 1.216.355 1.77.23.476.578.882 1.01 1.18a4.264 4.264 0 0 0 1.568.657 9.597 9.597 0 0 0 2.01.196c.814.008 1.628-.064 2.43-.217a17.21 17.21 0 0 0 1.826-.461v-6.555c.005-1.593-.412-2.756-1.251-3.49zm-1.707 8.179l-.559.098c-.213.037-.43.055-.646.055-.185 0-.406 0-.655-.034a2.336 2.336 0 0 1-.704-.174 1.412 1.412 0 0 1-.57-.449 1.401 1.401 0 0 1-.235-.874c-.037-.496.199-.971.612-1.235a3.135 3.135 0 0 1 1.667-.382c.18.001.36.012.538.033.202.022.388.048.559.076v2.888l-.007-.002zM104.104 70.92a2.536 2.536 0 0 0-1.21-.344 2.34 2.34 0 0 0-1.467.44 5.609 5.609 0 0 0-1.16 1.213l-.053-.382a10.36 10.36 0 0 0-.076-.459 5.435 5.435 0 0 0-.098-.437 1.27 1.27 0 0 0-.118-.318 8.646 8.646 0 0 0-.612-.107 4.527 4.527 0 0 0-.637-.043 5.588 5.588 0 0 0-1.246.133v11.328c.26.042.521.07.784.086.251.014.498.021.742.021s.495 0 .751-.021c.26-.014.518-.043.775-.086v-5.382a5.01 5.01 0 0 1 .268-1.84c.14-.38.373-.72.678-.983.247-.208.544-.347.86-.404a4.87 4.87 0 0 1 .817-.077h.354c.176 0 .352.015.526.046.293-.81.153-2.238.122-2.384zM95.99 73.958A5.163 5.163 0 0 0 95 72.066a4.662 4.662 0 0 0-1.676-1.258 5.664 5.664 0 0 0-2.365-.46 5.593 5.593 0 0 0-2.348.46 4.584 4.584 0 0 0-1.643 1.258 5.399 5.399 0 0 0-.989 1.892 7.966 7.966 0 0 0-.347 2.339 7.738 7.738 0 0 0 .333 2.317c.204.684.54 1.32.989 1.87.445.54 1.008.967 1.643 1.247a5.717 5.717 0 0 0 2.348.447 5.782 5.782 0 0 0 2.365-.447 4.537 4.537 0 0 0 1.676-1.247c.454-.546.79-1.183.989-1.87.22-.752.328-1.533.321-2.317a8.22 8.22 0 0 0-.307-2.339zm-3.3 4.955c-.35.603-.927.906-1.73.907-.803.002-1.372-.3-1.709-.907-.35-.607-.526-1.478-.526-2.614 0-1.135.175-2.006.526-2.613.352-.602.923-.903 1.712-.903.789 0 1.365.303 1.73.908.35.603.526 1.474.526 2.613s-.176 2.008-.528 2.609zM85.436 79.426l-.55.098c-.21.037-.421.055-.634.055a2.541 2.541 0 0 1-.704-.088 1.017 1.017 0 0 1-.498-.328 1.616 1.616 0 0 1-.324-.647 4.549 4.549 0 0 1-.108-1.092v-4.45h2.602a5.96 5.96 0 0 0 .108-1.225c0-.206 0-.373-.022-.547a5.2 5.2 0 0 0-.086-.59h-2.602v-2.04h-.493l-4.02 3.972.108.44h1.397v5.119c0 1.398.345 2.408 1.033 3.029.69.62 1.685.93 2.987.929a8.615 8.615 0 0 0 2.043-.239c.014-.103.023-.208.03-.318.007-.11 0-.239 0-.406a5.563 5.563 0 0 0-.063-.798 4.41 4.41 0 0 0-.204-.874zM77.363 74.12a4.02 4.02 0 0 0-1.122-.86 16.253 16.253 0 0 0-1.484-.678l-1.294-.516c-.216-.088-.432-.179-.645-.272a2.63 2.63 0 0 1-.583-.351 1.53 1.53 0 0 1-.408-.504 1.595 1.595 0 0 1-.153-.733 1.781 1.781 0 0 1 .195-.887c.118-.212.289-.39.496-.513.21-.12.44-.2.678-.24.245-.043.493-.065.742-.066.359-.002.717.016 1.073.055.286.03.57.077.85.14.24.057.475.13.704.22.224.087.44.175.656.263.364-.786.596-1.629.687-2.493a15.29 15.29 0 0 0-2.01-.569c-.676-.134-1.364-.2-2.054-.196a7.495 7.495 0 0 0-2.172.294c-.6.177-1.158.475-1.643.874-.46.387-.824.878-1.064 1.433a5.438 5.438 0 0 0-.152 3.545c.136.414.352.796.633 1.126.284.323.618.597.989.81.42.24.859.449 1.31.623l1.31.501c.259.1.51.208.754.318.235.105.456.241.655.406.193.164.353.364.47.59.13.272.193.572.183.874a1.751 1.751 0 0 1-.775 1.565c-.517.343-1.226.514-2.127.514a7.471 7.471 0 0 1-1.7-.187c-.58-.14-1.147-.326-1.698-.559-.156.469-.292.932-.408 1.39-.11.443-.187.892-.233 1.346.36.145.705.27 1.033.372.33.102.663.186 1 .253.352.067.707.114 1.064.141.374.029.796.043 1.268.043a8.037 8.037 0 0 0 2.548-.37 5.454 5.454 0 0 0 1.86-1.027c.495-.43.888-.97 1.15-1.577.27-.642.405-1.334.396-2.033a5.473 5.473 0 0 0-.258-1.803 3.672 3.672 0 0 0-.72-1.261z"/>
        </g>
        <path fill="#FEFEFE" d="M86.966 110.377h38.847"/>
        <mask id="b" fill="#fff">
            <use xlink:href="#a"/>
        </mask>
        <path fill="#3AC1F1" d="M86.966 112.6h38.847v-4.446H86.966z" mask="url(#b)"/>
        <path fill="#FEFEFE" d="M95.227 119.712h22.325M95.227 120.601h22.326v-1.779H95.227z" mask="url(#b)"/>
        <path fill="#9E8879" d="M30.076 25.504h91.679L103.894 4.8 66.366 1.265l-54.15 3.534z" mask="url(#b)"/>
        <path fill="#B69E8D" d="M12.558 5.211C12.558 2.333 14.725 0 17.791 0h81.628c3.065 0 5.232 2.333 5.232 5.211H12.558z" mask="url(#b)"/>
        <path fill="#9E8879" d="M121.395 25.014h28.256l4.186-5.211c1.84-1.703.59-4.17-2.093-4.17H131.86c-1.864 0-3.66.855-5.232 2.085l-5.233 7.296z" mask="url(#b)"/>
        <path fill="#B69E8E" d="M59.651 143.831H30.35V25.014L45 21.887l14.651 3.127z" mask="url(#b)"/>
        <path fill="#D2BBAB" d="M59.651 25.014H30.35l-4.186-5.211c-1.854-1.703-.583-4.17 2.093-4.17H48.14c2.273 0 4.099.855 5.232 2.085l6.28 7.296z" mask="url(#b)"/>
    </g>
</svg>
