<svg xmlns="http://www.w3.org/2000/svg" width="148" height="148" viewBox="0 0 148 148">
    <g fill="none" fill-rule="evenodd">
        <path fill="#3BC0F1" d="M6.317 108.688h134.366v-74H6.317z"/>
        <path fill="#FEFEFE" d="M122.605 43.938h-98.21c-1.456 4.294-4.704 7.689-8.811 9.21v37.079c4.107 1.52 7.355 4.916 8.81 9.21h98.21c1.456-4.294 4.704-7.69 8.813-9.21V53.148c-4.11-1.521-7.357-4.916-8.812-9.21"/>
        <path fill="#3BC0F1" d="M38.75 64.75c-3.839 0-6.95 3.106-6.95 6.938 0 3.831 3.111 6.937 6.95 6.937s6.95-3.106 6.95-6.938c0-3.831-3.111-6.937-6.95-6.937"/>
        <path fill="#506E8D" d="M38.75 67.063a4.63 4.63 0 0 1 4.633 4.624 4.63 4.63 0 0 1-4.633 4.626 4.63 4.63 0 0 1-4.633-4.626 4.63 4.63 0 0 1 4.633-4.624zm0 13.874c5.118 0 9.267-4.141 9.267-9.25 0-5.108-4.15-9.25-9.267-9.25-5.118 0-9.267 4.142-9.267 9.25 0 5.109 4.15 9.25 9.267 9.25zM8.633 106.376h129.734V37H8.633v69.375zm129.734-74H8.633A4.63 4.63 0 0 0 4 37v69.375A4.63 4.63 0 0 0 8.633 111h129.734a4.63 4.63 0 0 0 4.633-4.625V37a4.63 4.63 0 0 0-4.633-4.625zM17.9 54.693a13.897 13.897 0 0 0 8.458-8.443h94.284a13.897 13.897 0 0 0 8.458 8.443v33.99a13.897 13.897 0 0 0-8.458 8.442H26.358a13.897 13.897 0 0 0-8.458-8.443v-33.99zm4.633 47.057h101.934c0-5.108 4.149-9.25 9.266-9.25V50.875c-5.117 0-9.266-4.142-9.266-9.25H22.533c0 5.108-4.149 9.25-9.266 9.25V92.5c5.117 0 9.266 4.142 9.266 9.25zm38.348-19.025a19.111 19.111 0 0 0 7.986 3.083v2.067a2.314 2.314 0 0 0 2.316 2.313 2.315 2.315 0 0 0 2.317-2.313v-1.89c5.467-.605 9.267-3.783 9.267-8.167 0-4.477-2.822-7.06-9.427-8.637l-3.324-.847c-3.225-1-3.839-1.988-3.839-3.466 0-1.748 1.376-2.872 3.772-3.087.009-.003.356-.037.885-.037.595 0 1.484.046 2.337.268 1.098.287 2.799.9 4.277 1.748.475.273.959.41 1.438.41 1.51 0 2.697-1.115 2.697-2.54 0-.943-.496-1.706-1.42-2.206-1.949-1.172-4.402-1.958-6.663-2.275V55.5a2.314 2.314 0 0 0-2.317-2.313 2.312 2.312 0 0 0-2.316 2.313v1.725c-5.083.675-8.336 3.707-8.336 7.927 0 4.491 2.695 6.993 9.306 8.64l3.325.763c3.31.987 3.959 2.047 3.959 3.545 0 1.808-1.383 2.949-3.887 3.21-.007 0-.346.025-.862.025-.621 0-1.494-.034-2.403-.182-1.765-.292-4.288-1.383-6.118-2.65-.433-.327-1.017-.512-1.596-.512-1.49 0-2.655 1.115-2.655 2.537 0 .92.445 1.681 1.281 2.197z"/>
        <path fill="#F1F0F0" d="M112.883 57.813c-5.117 0-9.266 4.141-9.266 9.25V92.5c-11.445 0-20.674 5.59-25.484 13.875V111h-47.11c5.149 19.936 23.214 34.688 44.794 34.688 23.22 0 42.395-17.071 45.756-39.313h.577V67.062c0-5.108-4.15-9.25-9.267-9.25"/>
        <path fill="#506E8D" d="M38.75 27.75c3.023 0 5.567 1.936 6.524 4.625h5.06V20.812c0-3.831 3.11-6.937 6.95-6.937 3.838 0 6.95 3.106 6.95 6.938v11.562h4.633V11.562c0-3.831 3.111-6.937 6.95-6.937 3.838 0 6.95 3.106 6.95 6.938v20.812H87.4V20.812c0-3.831 3.111-6.937 6.95-6.937s6.95 3.106 6.95 6.938v11.562h4.633V20.812c0-6.387-5.184-11.562-11.583-11.562-2.62 0-5.009.902-6.95 2.363v-.05C87.4 5.175 82.215 0 75.817 0c-6.399 0-11.584 5.175-11.584 11.563v.05c-1.941-1.461-4.33-2.363-6.95-2.363-6.398 0-11.583 5.175-11.583 11.563v4.625a11.451 11.451 0 0 0-6.95-2.313 11.578 11.578 0 0 0-11.35 9.25h4.826c.957-2.69 3.5-4.625 6.524-4.625m74.133 27.75c-6.398 0-11.583 5.175-11.583 11.563v23.124c-15.353 0-27.8 12.423-27.8 27.75a2.312 2.312 0 0 0 2.317 2.313 2.312 2.312 0 0 0 2.316-2.313c0-12.771 10.372-23.124 23.167-23.124h4.633v-27.75c0-3.832 3.112-6.938 6.95-6.938 3.84 0 6.95 3.106 6.95 6.938v32.374c0 24.266-19.708 43.938-44.016 43.938-20.294 0-37.333-13.73-42.425-32.375h-4.78c5.204 21.229 24.335 37 47.205 37 26.868 0 48.65-21.742 48.65-48.563V67.064c0-6.388-5.185-11.563-11.584-11.563"/>
    </g>
</svg>
