<?xml version="1.0" encoding="utf-8"?>
<!-- Generator: Adobe Illustrator 16.0.0, SVG Export Plug-In . SVG Version: 6.00 Build 0)  -->
<!DOCTYPE svg PUBLIC "-//W3C//DTD SVG 1.1//EN" "http://www.w3.org/Graphics/SVG/1.1/DTD/svg11.dtd">
<svg version="1.1" id="Layer_1" xmlns="http://www.w3.org/2000/svg" xmlns:xlink="http://www.w3.org/1999/xlink" x="0px" y="0px"
	 width="12px" height="12px" viewBox="0 0 12 12" enable-background="new 0 0 12 12" xml:space="preserve">
<g>
	<path fill="none" d="M-0.004,12V0h12v12H-0.004z"/>
	<path fill="#303336" d="M5.741,3.1L5.741,3.1L0.115,8.352l0.002,0.002c-0.003,0.002-0.008,0.004-0.01,0.006
		C-0.04,8.506-0.041,8.744,0.106,8.891h0.001C0.25,9.032,0.478,9.035,0.625,8.898L0.626,8.9l5.369-5.015l5.369,5.014h0.001
		c0.149,0.144,0.386,0.14,0.529-0.009c0.144-0.149,0.14-0.387-0.009-0.53c-0.006-0.003-0.011-0.004-0.013-0.007l0.001-0.002
		L6.251,3.1L6.25,3.102c-0.143-0.135-0.367-0.135-0.51,0"/>
</g>
</svg>
