<?xml version="1.0" encoding="utf-8"?>
<!-- Generator: Adobe Illustrator 16.0.0, SVG Export Plug-In . SVG Version: 6.00 Build 0)  -->
<!DOCTYPE svg PUBLIC "-//W3C//DTD SVG 1.1//EN" "http://www.w3.org/Graphics/SVG/1.1/DTD/svg11.dtd">
<svg version="1.1" id="Layer_1" xmlns="http://www.w3.org/2000/svg" xmlns:xlink="http://www.w3.org/1999/xlink" x="0px" y="0px"
	 width="12px" height="12px" viewBox="0 0 12 12" enable-background="new 0 0 12 12" xml:space="preserve">
<g>
	<path fill="none" d="M12,12H0V0h12V12z"/>
	<path fill="#017DE5" d="M3.102,5.745c-0.135,0.143-0.135,0.367,0,0.51L3.1,6.256l5.252,5.625l0.002-0.002
		c0.002,0.003,0.004,0.008,0.006,0.012l0,0c0.145,0.149,0.381,0.153,0.53,0.01c0.148-0.144,0.153-0.381,0.009-0.529L8.9,11.37
		L3.886,6L8.9,0.631L8.898,0.628C9.035,0.481,9.032,0.252,8.891,0.11v0c-0.146-0.146-0.385-0.146-0.531,0
		C8.357,0.113,8.355,0.118,8.352,0.122L8.35,0.12L3.1,5.744v0.002"/>
</g>
</svg>
