<?xml version="1.0" encoding="utf-8"?>
<!-- Generator: Adobe Illustrator 16.0.0, SVG Export Plug-In . SVG Version: 6.00 Build 0)  -->
<!DOCTYPE svg PUBLIC "-//W3C//DTD SVG 1.1//EN" "http://www.w3.org/Graphics/SVG/1.1/DTD/svg11.dtd">
<svg version="1.1" id="Layer_1" xmlns="http://www.w3.org/2000/svg" xmlns:xlink="http://www.w3.org/1999/xlink" x="0px" y="0px"
	 width="24px" height="24px" viewBox="0 0 24 24" enable-background="new 0 0 24 24" xml:space="preserve">
<g>
	<path fill="none" d="M0,0h24v24H0V0z"/>
	<path fill="#FFFFFF" d="M15.882,11.703l0.002-0.001L9.757,5.139L9.754,5.141C9.751,5.137,9.75,5.132,9.747,5.129
		c-0.171-0.171-0.448-0.171-0.62,0l0,0C8.961,5.295,8.958,5.563,9.119,5.734L9.116,5.737L14.966,12l-5.85,6.264l0.002,0.004
		c-0.167,0.174-0.162,0.449,0.012,0.616s0.45,0.162,0.617-0.012c0.003-0.004,0.004-0.011,0.007-0.013l0.003,0.002l6.127-6.562
		l-0.002-0.002C16.039,12.13,16.039,11.87,15.882,11.703"/>
</g>
</svg>
