<svg xmlns="http://www.w3.org/2000/svg" xmlns:xlink="http://www.w3.org/1999/xlink" width="44" height="42" viewBox="0 0 44 42">
    <defs>
        <path id="a" d="M0 7V0h10v7H0z"/>
        <path id="c" d="M0 0h24v19H0V0z"/>
    </defs>
    <g fill="none" fill-rule="evenodd">
        <path fill="#00D4B8" d="M29.436 22.562c.472 0 .957.02 1.444.06-.027-.98.013-1.944.12-2.872A14.38 14.38 0 0 0 22.517 17c-4.271 0-8.305 1.869-11.068 5.128C6.82 27.59 6.87 35.601 11.486 41c-.07-2.884.56-5.764 1.832-8.364a18.018 18.018 0 0 1 5.97-6.925c3-2.06 6.509-3.149 10.148-3.149"/>
        <g transform="translate(0 35)">
            <mask id="b" fill="#fff">
                <use xlink:href="#a"/>
            </mask>
            <path fill="#00D4B8" d="M0 5.256C1.37 6.384 3.116 7 4.97 7 6.843 7 8.622 6.363 10 5.202A13.988 13.988 0 0 1 7.68 0C6.456 2.954 3.446 5.028 0 5.256" mask="url(#b)"/>
        </g>
        <g transform="translate(20)">
            <mask id="d" fill="#fff">
                <use xlink:href="#c"/>
            </mask>
            <path fill="#00D4B8" d="M11.364 19a20.632 20.632 0 0 1 2.912-7.692 20.516 20.516 0 0 1 8.615-7.623c1.032-.487 1.216-1.475 1.06-2.172C23.796.815 23.21 0 22.07 0H3.85a4.08 4.08 0 0 0 4.07 3.87c1.68 0 3.21-1.06 3.805-2.638a.214.214 0 1 1 .399.151 31.397 31.397 0 0 1-2.64 5.375A31.397 31.397 0 0 1 0 16.507 15.52 15.52 0 0 1 11.364 19" mask="url(#d)"/>
        </g>
        <path fill="#00D4B8" d="M31.135 23.079A18.281 18.281 0 0 0 29.443 23a17.905 17.905 0 0 0-9.858 2.925C14.448 29.297 11.575 35.06 12.05 41h18.846a1.753 1.753 0 0 0-.526-1.104 1.903 1.903 0 0 0-1.345-.543h-9.28a14.452 14.452 0 0 1 4.633-2.082c3.681-.926 6.998-3.022 9.338-5.903A16.51 16.51 0 0 0 37 24.65a17.96 17.96 0 0 0-5.865-1.57"/>
    </g>
</svg>
