<svg xmlns="http://www.w3.org/2000/svg" width="34" height="34" viewBox="0 0 34 34">
    <g fill="none" fill-rule="evenodd" stroke="#9FA2A2" stroke-width="1.889">
        <path d="M1 29.267V8.733C1 6.68 2.694 5 4.765 5h24.47C31.305 5 33 6.68 33 8.733v20.534C33 31.32 31.306 33 29.235 33H4.765C2.695 33 1 31.32 1 29.267z"/>
        <path stroke-linecap="round" stroke-linejoin="round" d="M25 19.5c0 4.14-3.36 7.5-7.5 7.5-4.14 0-7.5-3.36-7.5-7.5 0-4.14 3.36-7.5 7.5-7.5 4.14 0 7.5 3.36 7.5 7.5z"/>
        <path d="M18.944 5.056h9.112V3.778A2.833 2.833 0 0 0 25.222.944h-3.444a2.833 2.833 0 0 0-2.834 2.834v1.278z"/>
    </g>
</svg>
