<svg xmlns="http://www.w3.org/2000/svg" width="130" height="43" viewBox="0 0 130 43">
    <defs>
        <linearGradient id="a" x1="-126.971%" x2="119.921%" y1="257.25%" y2="6.888%">
            <stop offset="0%" stop-color="#1DA1F2"/>
            <stop offset="100%" stop-color="#7FD7F7"/>
        </linearGradient>
        <linearGradient id="b" x1="14321.617%" x2="6196.666%" y1="-10036%" y2="5768%">
            <stop offset="0%" stop-color="#1DA1F2"/>
            <stop offset="100%" stop-color="#7FD7F7"/>
        </linearGradient>
        <linearGradient id="c" x1=".168%" y1="50.076%" y2="50.076%">
            <stop offset="0%" stop-color="#1DA1F2"/>
            <stop offset="100%" stop-color="#017EE5"/>
        </linearGradient>
        <linearGradient id="d" x1="8072.071%" x2="-1989.992%" y1="14070%" y2="31728%">
            <stop offset="0%" stop-color="#1DA1F2"/>
            <stop offset="100%" stop-color="#017EE5"/>
        </linearGradient>
    </defs>
    <g fill="none" fill-rule="nonzero">
        <path fill="#017EE5" d="M129.485 32.821a5.611 5.611 0 0 0-1.129-2.006 5.357 5.357 0 0 0-1.81-1.329 5.794 5.794 0 0 0-2.435-.488 6.445 6.445 0 0 0-2.757.55 5.73 5.73 0 0 0-1.977 1.498 6.435 6.435 0 0 0-1.204 2.224 9.028 9.028 0 0 0-.405 2.734 9.15 9.15 0 0 0 .392 2.735c.077.21.165.415.265.616a2.395 2.395 0 0 1-.657.303 4.205 4.205 0 0 1-.912.103 2.392 2.392 0 0 1-.76-.103.972.972 0 0 1-.496-.37 1.878 1.878 0 0 1-.277-.753 7.336 7.336 0 0 1-.09-1.283V27.069a10.83 10.83 0 0 0-1.775-.154c-.602.001-1.204.053-1.798.154v10.976c0 1.635.393 2.815 1.18 3.54.785.727 1.829 1.088 3.13 1.086.322 0 .675-.018 1.06-.052.33-.023.657-.082.975-.177.778-.21 1.544-.466 2.293-.764.38.259.788.474 1.215.642a8.607 8.607 0 0 0 3.13.509 12.23 12.23 0 0 0 4.454-.766 6.377 6.377 0 0 0-.71-2.762 9.981 9.981 0 0 1-1.71.473c-.58.109-1.17.164-1.76.167-1.05 0-1.894-.23-2.535-.691-.64-.46-.994-1.202-1.06-2.223h8.413c.034-.187.064-.438.089-.755.025-.315.038-.642.038-.959a8.018 8.018 0 0 0-.377-2.492zm-8.135 1.673c.084-.868.345-1.542.784-2.017.44-.475 1.082-.717 1.926-.717a2.127 2.127 0 0 1 1.737.753c.434.567.67 1.264.67 1.981h-5.117zM110.065 32.731a6.054 6.054 0 0 0-1.113-2.081 4.479 4.479 0 0 0-1.697-1.241 5.43 5.43 0 0 0-2.12-.409 4.44 4.44 0 0 0-2.026.448c-.53.237-.974.634-1.272 1.135v-3.508c-.595-.1-1.197-.152-1.8-.154-.595.002-1.188.054-1.774.154v15.014c.347.128.701.235 1.06.32.389.093.796.172 1.218.23.422.057.848.106 1.253.14.406.035.808.05 1.18.05a9.308 9.308 0 0 0 3.142-.496 6.55 6.55 0 0 0 2.357-1.419 6.07 6.07 0 0 0 1.471-2.238c.35-.952.522-1.962.505-2.977a9.654 9.654 0 0 0-.384-2.968zm-4.281 6.112c-.625.646-1.487.97-2.586.972-.237 0-.466 0-.695-.026a2.587 2.587 0 0 1-.636-.128v-4.807c0-.972.212-1.685.636-2.14a2.196 2.196 0 0 1 1.658-.676c.929 0 1.588.32 1.977.959.388.639.583 1.571.583 2.798.003 1.38-.308 2.397-.933 3.048h-.004zM95.182 30.278c-.99-.856-2.362-1.284-4.118-1.284a13.657 13.657 0 0 0-4.307.742c-.01.475.05.949.178 1.406.137.434.316.854.534 1.253a8.897 8.897 0 0 1 2.914-.536c.386-.003.771.022 1.154.074.307.04.604.14.873.296.238.145.431.353.56.6.15.311.222.653.212.998v.306a19.508 19.508 0 0 0-1.622-.075 9.54 9.54 0 0 0-2.028.214 5.907 5.907 0 0 0-1.834.714 4.02 4.02 0 0 0-1.344 1.329 3.821 3.821 0 0 0-.52 2.058 4.61 4.61 0 0 0 .424 2.068 3.58 3.58 0 0 0 1.192 1.38c.56.377 1.188.639 1.85.768.78.16 1.574.236 2.37.23.953.01 1.905-.072 2.842-.247.727-.14 1.446-.32 2.155-.539v-7.665c0-1.874-.495-3.238-1.485-4.09zm-2.013 9.56l-.659.113c-.25.043-.505.065-.76.065-.211 0-.479-.013-.771-.039a2.771 2.771 0 0 1-.838-.214 1.673 1.673 0 0 1-.672-.526 1.628 1.628 0 0 1-.278-1.02c0-.665.24-1.146.721-1.445.48-.298 1.135-.447 1.964-.447.212.002.425.015.636.039.238.026.457.056.66.09l-.003 3.384zM86.086 29.666a3.009 3.009 0 0 0-1.425-.402 2.778 2.778 0 0 0-1.73.515 6.58 6.58 0 0 0-1.368 1.418l-.064-.447c-.025-.18-.055-.357-.087-.537a6.496 6.496 0 0 0-.114-.51 1.476 1.476 0 0 0-.14-.373c-.238-.05-.477-.092-.721-.126a5.383 5.383 0 0 0-.749-.052 6.642 6.642 0 0 0-.746.039 8.333 8.333 0 0 0-.721.115V42.55c.306.049.614.082.924.1.297.017.588.026.876.026.288 0 .583 0 .887-.026.306-.016.611-.05.914-.1V36.26c0-.921.105-1.634.316-2.14.165-.444.44-.84.799-1.148a2.18 2.18 0 0 1 1.014-.47 5.79 5.79 0 0 1 .963-.09h.424c.208-.002.416.015.621.05.329-.957.161-2.626.127-2.797zM76.52 33.217a6.018 6.018 0 0 0-1.167-2.212 5.492 5.492 0 0 0-1.976-1.472 6.735 6.735 0 0 0-2.787-.537c-.952-.022-1.899.16-2.776.537a5.4 5.4 0 0 0-1.95 1.472 6.29 6.29 0 0 0-1.167 2.212 9.24 9.24 0 0 0-.393 2.734 8.974 8.974 0 0 0 .393 2.708c.24.8.637 1.543 1.166 2.187a5.256 5.256 0 0 0 1.951 1.457 6.79 6.79 0 0 0 2.776.524 6.88 6.88 0 0 0 2.787-.522 5.345 5.345 0 0 0 1.976-1.457 6.028 6.028 0 0 0 1.167-2.187c.26-.878.388-1.791.38-2.708a9.533 9.533 0 0 0-.38-2.736zm-3.89 5.791c-.414.713-1.093 1.07-2.038 1.07-.944 0-1.616-.357-2.014-1.07-.415-.713-.622-1.731-.622-3.055 0-1.323.207-2.341.622-3.053.414-.713 1.085-1.07 2.014-1.07.93 0 1.609.357 2.038 1.07.415.713.622 1.731.622 3.053 0 1.322-.207 2.34-.622 3.055zM64.077 39.61l-.646.113a4.27 4.27 0 0 1-.747.064 3.014 3.014 0 0 1-.838-.103 1.2 1.2 0 0 1-.593-.383 1.883 1.883 0 0 1-.37-.766 5.275 5.275 0 0 1-.124-1.283v-5.184h3.064c.047-.245.081-.493.102-.742.017-.214.025-.452.025-.689 0-.237 0-.428-.025-.642a6.039 6.039 0 0 0-.102-.689h-3.067v-2.385h-.583l-4.737 4.634.127.513h1.645v5.99c0 1.635.406 2.815 1.218 3.54.811.727 1.985 1.088 3.522 1.085a10.24 10.24 0 0 0 2.407-.28c.015-.12.028-.244.036-.37a6.45 6.45 0 0 0-.062-1.406 5.12 5.12 0 0 0-.252-1.018z"/>
        <path fill="#017EE5" d="M129.485 32.821a5.611 5.611 0 0 0-1.129-2.006 5.357 5.357 0 0 0-1.81-1.329 5.794 5.794 0 0 0-2.435-.488 6.445 6.445 0 0 0-2.757.55 5.73 5.73 0 0 0-1.977 1.498 6.435 6.435 0 0 0-1.204 2.224 9.028 9.028 0 0 0-.405 2.734 9.15 9.15 0 0 0 .392 2.735c.077.21.165.415.265.616a2.395 2.395 0 0 1-.657.303 4.205 4.205 0 0 1-.912.103 2.392 2.392 0 0 1-.76-.103.972.972 0 0 1-.496-.37 1.878 1.878 0 0 1-.277-.753 7.336 7.336 0 0 1-.09-1.283V27.069a10.83 10.83 0 0 0-1.775-.154c-.602.001-1.204.053-1.798.154v10.976c0 1.635.393 2.815 1.18 3.54.785.727 1.829 1.088 3.13 1.086.322 0 .675-.018 1.06-.052.33-.023.657-.082.975-.177.778-.21 1.544-.466 2.293-.764.38.259.788.474 1.215.642a8.607 8.607 0 0 0 3.13.509 12.23 12.23 0 0 0 4.454-.766 6.377 6.377 0 0 0-.71-2.762 9.981 9.981 0 0 1-1.71.473c-.58.109-1.17.164-1.76.167-1.05 0-1.894-.23-2.535-.691-.64-.46-.994-1.202-1.06-2.223h8.413c.034-.187.064-.438.089-.755.025-.315.038-.642.038-.959a8.018 8.018 0 0 0-.377-2.492zm-8.135 1.673c.084-.868.345-1.542.784-2.017.44-.475 1.082-.717 1.926-.717a2.127 2.127 0 0 1 1.737.753c.434.567.67 1.264.67 1.981h-5.117zM110.065 32.731a6.054 6.054 0 0 0-1.113-2.081 4.479 4.479 0 0 0-1.697-1.241 5.43 5.43 0 0 0-2.12-.409 4.44 4.44 0 0 0-2.026.448c-.53.237-.974.634-1.272 1.135v-3.508c-.595-.1-1.197-.152-1.8-.154-.595.002-1.188.054-1.774.154v15.014c.347.128.701.235 1.06.32.389.093.796.172 1.218.23.422.057.848.106 1.253.14.406.035.808.05 1.18.05a9.308 9.308 0 0 0 3.142-.496 6.55 6.55 0 0 0 2.357-1.419 6.07 6.07 0 0 0 1.471-2.238c.35-.952.522-1.962.505-2.977a9.654 9.654 0 0 0-.384-2.968zm-4.281 6.112c-.625.646-1.487.97-2.586.972-.237 0-.466 0-.695-.026a2.587 2.587 0 0 1-.636-.128v-4.807c0-.972.212-1.685.636-2.14a2.196 2.196 0 0 1 1.658-.676c.929 0 1.588.32 1.977.959.388.639.583 1.571.583 2.798.003 1.38-.308 2.397-.933 3.048h-.004zM95.182 30.278c-.99-.856-2.362-1.284-4.118-1.284a13.657 13.657 0 0 0-4.307.742c-.01.475.05.949.178 1.406.137.434.316.854.534 1.253a8.897 8.897 0 0 1 2.914-.536c.386-.003.771.022 1.154.074.307.04.604.14.873.296.238.145.431.353.56.6.15.311.222.653.212.998v.306a19.508 19.508 0 0 0-1.622-.075 9.54 9.54 0 0 0-2.028.214 5.907 5.907 0 0 0-1.834.714 4.02 4.02 0 0 0-1.344 1.329 3.821 3.821 0 0 0-.52 2.058 4.61 4.61 0 0 0 .424 2.068 3.58 3.58 0 0 0 1.192 1.38c.56.377 1.188.639 1.85.768.78.16 1.574.236 2.37.23.953.01 1.905-.072 2.842-.247.727-.14 1.446-.32 2.155-.539v-7.665c0-1.874-.495-3.238-1.485-4.09zm-2.013 9.56l-.659.113c-.25.043-.505.065-.76.065-.211 0-.479-.013-.771-.039a2.771 2.771 0 0 1-.838-.214 1.673 1.673 0 0 1-.672-.526 1.628 1.628 0 0 1-.278-1.02c0-.665.24-1.146.721-1.445.48-.298 1.135-.447 1.964-.447.212.002.425.015.636.039.238.026.457.056.66.09l-.003 3.384zM86.086 29.666a3.009 3.009 0 0 0-1.425-.402 2.778 2.778 0 0 0-1.73.515 6.58 6.58 0 0 0-1.368 1.418l-.064-.447c-.025-.18-.055-.357-.087-.537a6.496 6.496 0 0 0-.114-.51 1.476 1.476 0 0 0-.14-.373c-.238-.05-.477-.092-.721-.126a5.383 5.383 0 0 0-.749-.052 6.642 6.642 0 0 0-.746.039 8.333 8.333 0 0 0-.721.115V42.55c.306.049.614.082.924.1.297.017.588.026.876.026.288 0 .583 0 .887-.026.306-.016.611-.05.914-.1V36.26c0-.921.105-1.634.316-2.14.165-.444.44-.84.799-1.148a2.18 2.18 0 0 1 1.014-.47 5.79 5.79 0 0 1 .963-.09h.424c.208-.002.416.015.621.05.329-.957.161-2.626.127-2.797zM76.52 33.217a6.018 6.018 0 0 0-1.167-2.212 5.492 5.492 0 0 0-1.976-1.472 6.735 6.735 0 0 0-2.787-.537c-.952-.022-1.899.16-2.776.537a5.4 5.4 0 0 0-1.95 1.472 6.29 6.29 0 0 0-1.167 2.212 9.24 9.24 0 0 0-.393 2.734 8.974 8.974 0 0 0 .393 2.708c.24.8.637 1.543 1.166 2.187a5.256 5.256 0 0 0 1.951 1.457 6.79 6.79 0 0 0 2.776.524 6.88 6.88 0 0 0 2.787-.522 5.345 5.345 0 0 0 1.976-1.457 6.028 6.028 0 0 0 1.167-2.187c.26-.878.388-1.791.38-2.708a9.533 9.533 0 0 0-.38-2.736zm-3.89 5.791c-.414.713-1.093 1.07-2.038 1.07-.944 0-1.616-.357-2.014-1.07-.415-.713-.622-1.731-.622-3.055 0-1.323.207-2.341.622-3.053.414-.713 1.085-1.07 2.014-1.07.93 0 1.609.357 2.038 1.07.415.713.622 1.731.622 3.053 0 1.322-.207 2.34-.622 3.055zM64.077 39.61l-.646.113a4.27 4.27 0 0 1-.747.064 3.014 3.014 0 0 1-.838-.103 1.2 1.2 0 0 1-.593-.383 1.883 1.883 0 0 1-.37-.766 5.275 5.275 0 0 1-.124-1.283v-5.184h3.064c.047-.245.081-.493.102-.742.017-.214.025-.452.025-.689 0-.237 0-.428-.025-.642a6.039 6.039 0 0 0-.102-.689h-3.067v-2.385h-.583l-4.737 4.634.127.513h1.645v5.99c0 1.635.406 2.815 1.218 3.54.811.727 1.985 1.088 3.522 1.085a10.24 10.24 0 0 0 2.407-.28c.015-.12.028-.244.036-.37a6.45 6.45 0 0 0-.062-1.406 5.12 5.12 0 0 0-.252-1.018zM54.562 33.41a4.733 4.733 0 0 0-1.33-1.01 19.638 19.638 0 0 0-1.75-.792l-1.518-.588c-.254-.103-.509-.214-.76-.319a3.105 3.105 0 0 1-.684-.408c-.2-.16-.365-.36-.482-.589a1.851 1.851 0 0 1-.18-.855c-.015-.36.064-.717.23-1.036.138-.248.34-.456.582-.601.248-.14.52-.235.8-.28.29-.051.582-.077.876-.077.425-.003.85.018 1.272.064.337.035.671.09 1.001.165.285.065.565.15.838.256.263.1.52.204.772.306a9.19 9.19 0 0 0 .812-2.914 18.152 18.152 0 0 0-2.369-.665 12.142 12.142 0 0 0-2.42-.23 8.906 8.906 0 0 0-2.57.337 5.512 5.512 0 0 0-1.95 1.023 4.553 4.553 0 0 0-1.254 1.675 6.307 6.307 0 0 0-.176 4.141c.16.484.414.931.746 1.316.334.379.729.7 1.167.948.496.281 1.013.525 1.546.727l1.546.589c.305.117.6.243.888.37.278.122.537.282.772.475.23.19.419.424.558.688.152.319.225.67.212 1.023 0 .819-.305 1.428-.914 1.83-.61.4-1.445.6-2.507.598a8.879 8.879 0 0 1-2.002-.214c-.68-.16-1.345-.375-1.991-.642a20.01 20.01 0 0 0-.484 1.624c-.13.508-.223 1.025-.28 1.547.425.171.828.316 1.218.428.388.118.781.217 1.179.295.415.079.834.134 1.255.167.442.032.938.049 1.485.049a9.548 9.548 0 0 0 3.003-.428 6.445 6.445 0 0 0 2.193-1.202 5.131 5.131 0 0 0 1.355-1.842c.318-.75.477-1.56.466-2.377a6.347 6.347 0 0 0-.303-2.107 4.287 4.287 0 0 0-.848-1.465z"/>
        <path fill="url(#a)" d="M8.211 31.844c0 4.592-3.659 8.331-8.211 8.39a7.34 7.34 0 0 0 5.372 2.23 7.343 7.343 0 0 0 5.306-2.386 14.95 14.95 0 0 1-2.467-8.234z"/>
        <path fill="url(#b)" d="M42.12 0H23.998c0 2.052 1.453 3.811 3.455 4.18a4.206 4.206 0 0 0 4.697-2.682 30.843 30.843 0 0 1-2.577 5.284 30.563 30.563 0 0 1-12.82 11.595 14.634 14.634 0 0 1 14.935 1.497 20.438 20.438 0 0 1 2.958-8.377 19.949 19.949 0 0 1 8.38-7.458C45.052 3.081 44.37 0 42.12 0z"/>
        <path fill="url(#c)" d="M20.102 26.517a17.206 17.206 0 0 1 11.47-2.985 20.345 20.345 0 0 1 .11-3.68c-6.236-4.65-14.977-3.632-19.998 2.329-5.021 5.961-4.606 14.828.951 20.284-.548-6.286 2.306-12.382 7.467-15.948z"/>
        <path fill="url(#d)" d="M31.573 23.532a17.234 17.234 0 0 0-13.876 4.98 17.562 17.562 0 0 0-5.062 13.951h18.9a2.079 2.079 0 0 0-.58-1.499 2.042 2.042 0 0 0-1.47-.625H21.06a13.642 13.642 0 0 1 3.917-1.733c6.36-1.69 11.224-6.866 12.559-13.362a17.19 17.19 0 0 0-5.964-1.712zM19.68 41.366zm.677-.535a9.603 9.603 0 0 0 .002 0h-.002zm.072-.052c.212-.151.424-.297.636-.427-.22.13-.43.276-.638.427h.002z"/>
    </g>
</svg>
