<svg xmlns="http://www.w3.org/2000/svg" xmlns:xlink="http://www.w3.org/1999/xlink" width="44" height="42" viewBox="0 0 44 42">
    <defs>
        <path id="a" d="M0 7.35V.057h9.669V7.35H0z"/>
        <path id="c" d="M.009.047h23.8v18.65H.009V.046z"/>
    </defs>
    <g fill="none" fill-rule="evenodd">
        <path fill="#1DA1F2" d="M29.654 22.63c.477 0 .966.02 1.459.06a20.06 20.06 0 0 1 .12-2.874 14.622 14.622 0 0 0-8.568-2.751h-.002a14.69 14.69 0 0 0-11.18 5.13 14.472 14.472 0 0 0 .038 18.88 17.945 17.945 0 0 1 1.85-8.367 18.077 18.077 0 0 1 6.03-6.928 18.158 18.158 0 0 1 10.253-3.15"/>
        <g transform="translate(0 34.603)">
            <mask id="b" fill="#fff">
                <use xlink:href="#a"/>
            </mask>
            <path fill="#1DA1F2" d="M0 5.533A7.192 7.192 0 0 0 4.806 7.35c1.81 0 3.53-.664 4.863-1.874A15.15 15.15 0 0 1 7.426.056C6.242 3.136 3.332 5.297 0 5.534" mask="url(#b)"/>
        </g>
        <g transform="translate(20.096 .163)">
            <mask id="d" fill="#fff">
                <use xlink:href="#c"/>
            </mask>
            <path fill="#1DA1F2" d="M11.278 18.696a20.126 20.126 0 0 1 2.888-7.55 20.28 20.28 0 0 1 8.542-7.481c1.024-.479 1.207-1.448 1.052-2.133-.154-.685-.735-1.485-1.867-1.485H3.828A4.018 4.018 0 0 0 7.134 3.78a4.056 4.056 0 0 0 4.503-2.524.212.212 0 0 1 .273-.122.21.21 0 0 1 .123.271A30.688 30.688 0 0 1 9.415 6.68a30.965 30.965 0 0 1-9.406 9.57c.85-.143 1.707-.214 2.558-.214 3.125 0 6.129.919 8.711 2.66" mask="url(#d)"/>
        </g>
        <path fill="#1DA1F2" d="M31.328 23.577a17.476 17.476 0 0 0-1.674-.08c-3.5 0-6.874 1.036-9.759 2.998-5.084 3.458-7.93 9.367-7.457 15.458h18.655a1.85 1.85 0 0 0-1.852-1.69h-9.186a14.07 14.07 0 0 1 4.586-2.134 17.38 17.38 0 0 0 9.244-6.052 17.182 17.182 0 0 0 3.25-6.89 17.297 17.297 0 0 0-5.807-1.61"/>
    </g>
</svg>
