<?xml version="1.0" encoding="utf-8"?>
<!-- Generator: Adobe Illustrator 16.0.0, SVG Export Plug-In . SVG Version: 6.00 Build 0)  -->
<!DOCTYPE svg PUBLIC "-//W3C//DTD SVG 1.1//EN" "http://www.w3.org/Graphics/SVG/1.1/DTD/svg11.dtd">
<svg version="1.1" id="Layer_1" xmlns="http://www.w3.org/2000/svg" xmlns:xlink="http://www.w3.org/1999/xlink" x="0px" y="0px"
	 width="48px" height="60px" viewBox="0 0 48 60" enable-background="new 0 0 48 60" xml:space="preserve">
<linearGradient id="SVGID_1_" gradientUnits="userSpaceOnUse" x1="13.4878" y1="36.0342" x2="39.4979" y2="12.8513">
	<stop  offset="0" style="stop-color:#00A9FF"/>
	<stop  offset="0.9133" style="stop-color:#017EE5"/>
</linearGradient>
<path fill="url(#SVGID_1_)" d="M47.157,23.655c0-12.876-10.437-23.314-23.315-23.314c-12.877,0-23.314,10.438-23.314,23.314
	c0,2.89,0.529,5.654,1.489,8.209c0,0,0,0.001,0,0.002c1.856,4.726,13.661,20.777,21.234,27.346c0.591,0.634,2.036,0.716,2.806,0
	c7.179-8.362,14.459-17.772,17.841-23.668c0.016-0.024,0.009-0.047,0.018-0.071C45.962,32.005,47.157,27.975,47.157,23.655z"/>
<circle fill="#FFFFFF" cx="23.844" cy="22.79" r="17.331"/>
</svg>
