<svg xmlns="http://www.w3.org/2000/svg" width="130" height="42" viewBox="0 0 130 42">
    <g fill="#FFF" fill-rule="evenodd">
        <path d="M121.32 33.717c.086-.862.347-1.532.789-2.005.441-.475 1.087-.713 1.934-.713.748 0 1.329.25 1.745.75.414.5.638 1.157.673 1.968h-5.141zm8.17-1.662a5.56 5.56 0 0 0-1.134-1.995 5.38 5.38 0 0 0-1.818-1.32c-.714-.323-1.528-.484-2.444-.484-1.052 0-1.972.182-2.76.546a5.75 5.75 0 0 0-1.986 1.487 6.375 6.375 0 0 0-1.21 2.21 8.887 8.887 0 0 0-.407 2.719c0 .982.133 1.888.394 2.718.07.22.177.41.267.612-.256.189-.66.302-.66.302a4.243 4.243 0 0 1-.915.103c-.305 0-.56-.035-.764-.103a.974.974 0 0 1-.498-.369c-.126-.177-.22-.425-.278-.749-.06-.32-.09-.744-.09-1.268V26.343c-.612-.1-1.205-.152-1.782-.152-.594 0-1.196.051-1.807.152v10.908c0 1.624.394 2.797 1.183 3.518.789.72 1.837 1.08 3.143 1.08a11.8 11.8 0 0 0 1.057-.052c.382-.033.707-.092.98-.178 0 0 1.572-.427 2.303-.76.365.246.77.459 1.221.634.875.338 1.923.507 3.143.507 1.663 0 3.156-.252 4.48-.762a6.285 6.285 0 0 0-.713-2.744 10.09 10.09 0 0 1-1.718.471 9.893 9.893 0 0 1-1.768.165c-1.053 0-1.9-.23-2.545-.687-.645-.456-1.001-1.192-1.07-2.209h8.449a7.89 7.89 0 0 0 .09-.75c.026-.313.038-.63.038-.953a7.89 7.89 0 0 0-.381-2.476zM105.694 38.039c-.628.642-1.494.965-2.596.965-.238 0-.47-.008-.7-.026a2.628 2.628 0 0 1-.649-.128v-4.775c0-.965.216-1.674.65-2.123.43-.447.988-.672 1.666-.672.932 0 1.594.317 1.985.952.39.636.585 1.563.585 2.782 0 1.372-.313 2.38-.941 3.025zm4.3-6.074c-.272-.829-.645-1.52-1.119-2.07a4.492 4.492 0 0 0-1.694-1.232 5.5 5.5 0 0 0-2.124-.407c-.763 0-1.443.15-2.034.445-.596.295-1.019.672-1.274 1.13v-3.488c-.61-.1-1.213-.152-1.807-.152-.577 0-1.17.051-1.781.152v14.92c.32.12.68.225 1.07.32.39.092.797.169 1.22.227.424.06.844.107 1.26.14.415.033.81.05 1.183.05 1.17 0 2.223-.165 3.156-.495.932-.329 1.721-.8 2.366-1.41a6.026 6.026 0 0 0 1.478-2.224c.338-.87.508-1.857.508-2.96 0-1.134-.136-2.116-.408-2.946zM93.022 39.03c-.189.031-.408.07-.663.113a4.608 4.608 0 0 1-.763.064c-.22 0-.48-.013-.776-.038a2.807 2.807 0 0 1-.84-.204 1.676 1.676 0 0 1-.676-.522c-.186-.236-.278-.573-.278-1.014 0-.662.242-1.141.724-1.436.485-.296 1.141-.446 1.973-.446.186 0 .398.013.636.039.238.026.46.055.663.09v3.353zm2.021-9.503c-.992-.848-2.37-1.271-4.135-1.271a13.865 13.865 0 0 0-4.326.736c0 .544.06 1.008.178 1.398.12.39.298.804.536 1.245 1.033-.355 2.008-.533 2.926-.533.425 0 .81.026 1.157.075.348.051.642.15.877.293.239.144.425.343.562.597.135.255.204.585.204.991v.304a19.998 19.998 0 0 0-1.63-.075c-.679 0-1.357.07-2.036.216a5.98 5.98 0 0 0-1.843.71c-.554.33-1.002.772-1.351 1.322-.348.552-.521 1.232-.521 2.046 0 .813.139 1.498.42 2.056.28.561.677 1.017 1.196 1.372.517.358 1.136.61 1.857.764.723.152 1.515.227 2.38.227 1.07 0 2.028-.083 2.876-.252.847-.17 1.57-.347 2.163-.536v-7.62c0-1.863-.497-3.218-1.49-4.065zM85.909 28.92c-.101-.035-.642-.401-1.43-.401-.547 0-1.197.096-1.739.512a6.576 6.576 0 0 0-1.374 1.41l-.064-.445a15.028 15.028 0 0 0-.088-.533 7.436 7.436 0 0 0-.116-.507 1.46 1.46 0 0 0-.14-.37c-.237-.05-.48-.093-.724-.127a5.471 5.471 0 0 0-.752-.051 6.747 6.747 0 0 0-1.475.154v13.16c.321.051.632.083.928.1a14.85 14.85 0 0 0 1.768 0c.307-.017.612-.049.918-.1v-6.25c0-.915.105-1.626.317-2.136.213-.507.478-.888.802-1.142a2.197 2.197 0 0 1 1.018-.469c.356-.06.678-.09.968-.09h.42c.229 0 .435.017.623.051.34-.94.174-2.598.14-2.767M72.396 38.203c-.416.702-1.098 1.053-2.047 1.053-.935 0-1.608-.35-2.024-1.053-.416-.704-.624-1.716-.624-3.037 0-1.32.208-2.332.624-3.034.416-.704 1.09-1.055 2.024-1.055.95 0 1.631.35 2.047 1.055.416.702.624 1.714.624 3.034 0 1.32-.208 2.333-.624 3.037zm3.906-5.755a5.96 5.96 0 0 0-1.17-2.198c-.525-.618-1.188-1.104-1.985-1.461-.798-.356-1.73-.533-2.798-.533-1.07 0-1.998.177-2.787.533a5.416 5.416 0 0 0-1.96 1.461c-.518.619-.908 1.35-1.17 2.198a9.1 9.1 0 0 0-.395 2.718c0 .966.131 1.865.395 2.693.262.83.652 1.556 1.17 2.172a5.275 5.275 0 0 0 1.96 1.449c.789.347 1.717.52 2.787.52 1.068 0 2-.173 2.798-.52a5.366 5.366 0 0 0 1.985-1.449 5.969 5.969 0 0 0 1.17-2.172 9.11 9.11 0 0 0 .382-2.693c0-.965-.127-1.87-.382-2.718zM63.806 38.8c-.187.035-.403.071-.65.114a4.323 4.323 0 0 1-.75.064c-.322 0-.602-.034-.84-.103a1.206 1.206 0 0 1-.596-.38c-.163-.187-.285-.44-.371-.763-.084-.32-.127-.744-.127-1.268v-5.159h3.079a6.86 6.86 0 0 0 .129-1.423 5.992 5.992 0 0 0-.129-1.32h-3.079V26.19h-.585l-4.76 4.605.13.51h1.652v5.945c0 1.624.408 2.797 1.222 3.518.815.72 1.994 1.08 3.538 1.08.831 0 1.637-.093 2.418-.28.015-.119.028-.241.036-.367a6.337 6.337 0 0 0-.062-1.397 5.042 5.042 0 0 0-.255-1.005"/>
        <path d="M121.32 33.717c.086-.862.347-1.532.789-2.005.441-.475 1.087-.713 1.934-.713.748 0 1.329.25 1.745.75.414.5.638 1.157.673 1.968h-5.141zm8.17-1.662a5.56 5.56 0 0 0-1.134-1.995 5.38 5.38 0 0 0-1.818-1.32c-.714-.323-1.528-.484-2.444-.484-1.052 0-1.972.182-2.76.546a5.75 5.75 0 0 0-1.986 1.487 6.375 6.375 0 0 0-1.21 2.21 8.887 8.887 0 0 0-.407 2.719c0 .982.133 1.888.394 2.718.07.22.177.41.267.612-.256.189-.66.302-.66.302a4.243 4.243 0 0 1-.915.103c-.305 0-.56-.035-.764-.103a.974.974 0 0 1-.498-.369c-.126-.177-.22-.425-.278-.749-.06-.32-.09-.744-.09-1.268V26.343c-.612-.1-1.205-.152-1.782-.152-.594 0-1.196.051-1.807.152v10.908c0 1.624.394 2.797 1.183 3.518.789.72 1.837 1.08 3.143 1.08a11.8 11.8 0 0 0 1.057-.052c.382-.033.707-.092.98-.178 0 0 1.572-.427 2.303-.76.365.246.77.459 1.221.634.875.338 1.923.507 3.143.507 1.663 0 3.156-.252 4.48-.762a6.285 6.285 0 0 0-.713-2.744 10.09 10.09 0 0 1-1.718.471 9.893 9.893 0 0 1-1.768.165c-1.053 0-1.9-.23-2.545-.687-.645-.456-1.001-1.192-1.07-2.209h8.449a7.89 7.89 0 0 0 .09-.75c.026-.313.038-.63.038-.953a7.89 7.89 0 0 0-.381-2.476zM105.694 38.039c-.628.642-1.494.965-2.596.965-.238 0-.47-.008-.7-.026a2.628 2.628 0 0 1-.649-.128v-4.775c0-.965.216-1.674.65-2.123.43-.447.988-.672 1.666-.672.932 0 1.594.317 1.985.952.39.636.585 1.563.585 2.782 0 1.372-.313 2.38-.941 3.025zm4.3-6.074c-.272-.829-.645-1.52-1.119-2.07a4.492 4.492 0 0 0-1.694-1.232 5.5 5.5 0 0 0-2.124-.407c-.763 0-1.443.15-2.034.445-.596.295-1.019.672-1.274 1.13v-3.488c-.61-.1-1.213-.152-1.807-.152-.577 0-1.17.051-1.781.152v14.92c.32.12.68.225 1.07.32.39.092.797.169 1.22.227.424.06.844.107 1.26.14.415.033.81.05 1.183.05 1.17 0 2.223-.165 3.156-.495.932-.329 1.721-.8 2.366-1.41a6.026 6.026 0 0 0 1.478-2.224c.338-.87.508-1.857.508-2.96 0-1.134-.136-2.116-.408-2.946zM93.022 39.03c-.189.031-.408.07-.663.113a4.608 4.608 0 0 1-.763.064c-.22 0-.48-.013-.776-.038a2.807 2.807 0 0 1-.84-.204 1.676 1.676 0 0 1-.676-.522c-.186-.236-.278-.573-.278-1.014 0-.662.242-1.141.724-1.436.485-.296 1.141-.446 1.973-.446.186 0 .398.013.636.039.238.026.46.055.663.09v3.353zm2.021-9.503c-.992-.848-2.37-1.271-4.135-1.271a13.865 13.865 0 0 0-4.326.736c0 .544.06 1.008.178 1.398.12.39.298.804.536 1.245 1.033-.355 2.008-.533 2.926-.533.425 0 .81.026 1.157.075.348.051.642.15.877.293.239.144.425.343.562.597.135.255.204.585.204.991v.304a19.998 19.998 0 0 0-1.63-.075c-.679 0-1.357.07-2.036.216a5.98 5.98 0 0 0-1.843.71c-.554.33-1.002.772-1.351 1.322-.348.552-.521 1.232-.521 2.046 0 .813.139 1.498.42 2.056.28.561.677 1.017 1.196 1.372.517.358 1.136.61 1.857.764.723.152 1.515.227 2.38.227 1.07 0 2.028-.083 2.876-.252.847-.17 1.57-.347 2.163-.536v-7.62c0-1.863-.497-3.218-1.49-4.065zM85.909 28.92c-.101-.035-.642-.401-1.43-.401-.547 0-1.197.096-1.739.512a6.576 6.576 0 0 0-1.374 1.41l-.064-.445a15.028 15.028 0 0 0-.088-.533 7.436 7.436 0 0 0-.116-.507 1.46 1.46 0 0 0-.14-.37c-.237-.05-.48-.093-.724-.127a5.471 5.471 0 0 0-.752-.051 6.747 6.747 0 0 0-1.475.154v13.16c.321.051.632.083.928.1a14.85 14.85 0 0 0 1.768 0c.307-.017.612-.049.918-.1v-6.25c0-.915.105-1.626.317-2.136.213-.507.478-.888.802-1.142a2.197 2.197 0 0 1 1.018-.469c.356-.06.678-.09.968-.09h.42c.229 0 .435.017.623.051.34-.94.174-2.598.14-2.767M72.396 38.203c-.416.702-1.098 1.053-2.047 1.053-.935 0-1.608-.35-2.024-1.053-.416-.704-.624-1.716-.624-3.037 0-1.32.208-2.332.624-3.034.416-.704 1.09-1.055 2.024-1.055.95 0 1.631.35 2.047 1.055.416.702.624 1.714.624 3.034 0 1.32-.208 2.333-.624 3.037zm3.906-5.755a5.96 5.96 0 0 0-1.17-2.198c-.525-.618-1.188-1.104-1.985-1.461-.798-.356-1.73-.533-2.798-.533-1.07 0-1.998.177-2.787.533a5.416 5.416 0 0 0-1.96 1.461c-.518.619-.908 1.35-1.17 2.198a9.1 9.1 0 0 0-.395 2.718c0 .966.131 1.865.395 2.693.262.83.652 1.556 1.17 2.172a5.275 5.275 0 0 0 1.96 1.449c.789.347 1.717.52 2.787.52 1.068 0 2-.173 2.798-.52a5.366 5.366 0 0 0 1.985-1.449 5.969 5.969 0 0 0 1.17-2.172 9.11 9.11 0 0 0 .382-2.693c0-.965-.127-1.87-.382-2.718zM63.806 38.8c-.187.035-.403.071-.65.114a4.323 4.323 0 0 1-.75.064c-.322 0-.602-.034-.84-.103a1.206 1.206 0 0 1-.596-.38c-.163-.187-.285-.44-.371-.763-.084-.32-.127-.744-.127-1.268v-5.159h3.079a6.86 6.86 0 0 0 .129-1.423 5.992 5.992 0 0 0-.129-1.32h-3.079V26.19h-.585l-4.76 4.605.13.51h1.652v5.945c0 1.624.408 2.797 1.222 3.518.815.72 1.994 1.08 3.538 1.08.831 0 1.637-.093 2.418-.28.015-.119.028-.241.036-.367a6.337 6.337 0 0 0-.062-1.397 5.042 5.042 0 0 0-.255-1.005M54.251 32.639a4.745 4.745 0 0 0-1.336-1.004c-.525-.27-1.11-.533-1.755-.787l-1.527-.585c-.255-.102-.51-.208-.763-.316a3.122 3.122 0 0 1-.688-.407 1.78 1.78 0 0 1-.482-.584c-.12-.23-.18-.514-.18-.852 0-.424.076-.766.229-1.03.154-.26.347-.46.585-.597a2.42 2.42 0 0 1 .802-.278c.298-.051.59-.077.879-.077.473 0 .898.021 1.271.064.373.04.71.097 1.006.165.298.068.577.152.84.255.264.1.521.2.776.304a9.055 9.055 0 0 0 .815-2.896 18.403 18.403 0 0 0-2.38-.662 12.321 12.321 0 0 0-2.431-.228c-.95 0-1.805.115-2.57.342-.764.229-1.415.57-1.96 1.017a4.526 4.526 0 0 0-1.258 1.665c-.298.659-.447 1.423-.447 2.285 0 .713.09 1.323.269 1.83.178.508.426.944.75 1.308a4.56 4.56 0 0 0 1.17.942c.46.26.976.503 1.553.723l1.552.584c.307.118.602.242.892.368.287.126.546.285.775.471.228.186.414.415.56.685.144.272.217.61.217 1.016 0 .814-.307 1.42-.918 1.818-.61.398-1.45.597-2.519.597a9.011 9.011 0 0 1-2.01-.216 13.24 13.24 0 0 1-2.01-.649c-.188.544-.349 1.081-.484 1.614-.135.533-.23 1.047-.28 1.536.424.17.831.315 1.221.433.39.117.785.216 1.184.293.398.075.819.13 1.26.165.442.032.941.049 1.501.049 1.136 0 2.142-.143 3.016-.43.873-.289 1.608-.687 2.202-1.194a5.114 5.114 0 0 0 1.361-1.83c.313-.71.47-1.498.47-2.363 0-.83-.101-1.528-.305-2.095a4.252 4.252 0 0 0-.853-1.45M31.153 23.414c-.55-.053-1.11-.08-1.665-.08a17.154 17.154 0 0 0-17.12 18.456H30.92a1.827 1.827 0 0 0-.517-1.132c-.351-.36-.821-.557-1.324-.557h-9.135a13.959 13.959 0 0 1 4.56-2.134 17.274 17.274 0 0 0 9.193-6.053 17.225 17.225 0 0 0 3.231-6.89 17.127 17.127 0 0 0-5.774-1.61"/>
        <path d="M29.488 22.467c.474 0 .961.02 1.45.06-.027-.98.014-1.945.121-2.874a14.486 14.486 0 0 0-8.521-2.75h-.001c-4.29-.001-8.342 1.869-11.117 5.13-4.651 5.464-4.601 13.478.036 18.88a18.027 18.027 0 0 1 7.837-15.295 17.986 17.986 0 0 1 10.195-3.15M0 39.973a7.128 7.128 0 0 0 4.78 1.817c1.799 0 3.51-.664 4.835-1.874a15.202 15.202 0 0 1-2.23-5.42A8.593 8.593 0 0 1 0 39.973"/>
        <path d="M31.199 18.696A20.194 20.194 0 0 1 42.565 3.664c1.018-.478 1.2-1.447 1.046-2.132C43.458.847 42.88.047 41.755.047H23.79a4.01 4.01 0 0 0 4.013 3.8 4.034 4.034 0 0 0 3.753-2.59.21.21 0 0 1 .393.148 30.79 30.79 0 0 1-2.603 5.275 30.886 30.886 0 0 1-9.353 9.569 15.384 15.384 0 0 1 2.544-.213c3.107 0 6.094.919 8.662 2.66"/>
    </g>
</svg>
