<?xml version="1.0" encoding="utf-8"?>
<!-- Generator: Adobe Illustrator 16.0.0, SVG Export Plug-In . SVG Version: 6.00 Build 0)  -->
<!DOCTYPE svg PUBLIC "-//W3C//DTD SVG 1.1//EN" "http://www.w3.org/Graphics/SVG/1.1/DTD/svg11.dtd">
<svg version="1.1" id="Layer_1" xmlns="http://www.w3.org/2000/svg" xmlns:xlink="http://www.w3.org/1999/xlink" x="0px" y="0px"
	 width="120px" height="120px" viewBox="0 0 120 120" enable-background="new 0 0 120 120" xml:space="preserve">
<rect fill="#FFFFFF" width="120" height="120"/>
<g>
	<path fill="#E6E6E6" d="M74.293,58.428c-6.609-0.012-13.068,1.972-18.534,5.689c-9.656,6.557-15.06,17.762-14.162,29.312h35.428
		c-0.066-0.811-0.416-1.57-0.988-2.146c-0.665-0.68-1.577-1.061-2.528-1.057H56.063c2.635-1.863,5.585-3.234,8.708-4.047
		c6.922-1.801,13.156-5.877,17.557-11.479c3.01-3.838,5.119-8.303,6.172-13.064c-3.469-1.655-7.201-2.689-11.027-3.056
		C76.416,58.479,75.355,58.428,74.293,58.428z"/>
	<path fill="#E6E6E6" d="M74.508,57.089c0.903,0,1.83,0.039,2.762,0.114c-0.053-1.838,0.023-3.678,0.23-5.505
		c-4.713-3.434-10.396-5.28-16.229-5.27H61.27c-8.161-0.004-15.907,3.593-21.17,9.83c-8.858,10.468-8.762,25.824,0.07,36.171
		c-0.13-5.547,1.072-11.045,3.505-16.033c2.603-5.33,6.536-9.9,11.42-13.27C60.801,59.187,67.573,57.082,74.508,57.089 M18.5,90.941
		c2.437,2.248,5.632,3.494,8.947,3.488c3.369,0,6.57-1.275,9.053-3.596c-2.042-3.17-3.459-6.703-4.176-10.404
		C30.12,86.338,24.704,90.486,18.5,90.941"/>
	<path fill="#E6E6E6" d="M77.809,50.428c0.83-5.173,2.688-10.129,5.459-14.575c3.895-6.257,9.5-11.269,16.152-14.442
		c1.936-0.923,2.281-2.795,1.989-4.117c-0.292-1.322-1.392-2.866-3.53-2.866H63.721c0.182,3.562,2.754,6.558,6.25,7.206
		c0.455,0.084,0.916,0.127,1.379,0.128c3.15,0,6.019-2.01,7.135-5c0.078-0.208,0.309-0.312,0.517-0.235
		c0.207,0.081,0.31,0.314,0.231,0.522c-1.324,3.543-2.98,6.954-4.949,10.184c-4.508,7.381-10.578,13.686-17.783,18.47
		c1.598-0.272,3.216-0.41,4.837-0.411c5.909,0,11.588,1.774,16.47,5.136"/>
</g>
</svg>
