<svg xmlns="http://www.w3.org/2000/svg" xmlns:xlink="http://www.w3.org/1999/xlink" width="148" height="98" viewBox="0 0 148 98">
    <defs>
        <path id="a" d="M0 97.443h148V0H0z"/>
    </defs>
    <g fill="none" fill-rule="evenodd">
        <path fill="#F1F0F0" d="M111 25.52H92.5c-19.157 0-34.688 15.582-34.688 34.802 0 2.387.269 4.71.729 6.96h-5.353c-3.832 0-6.938 3.116-6.938 6.96 0 3.845 3.106 6.96 6.938 6.96h11.62c.085.11.155.228.238.335-2.842.87-4.921 3.49-4.921 6.626 0 3.844 3.106 6.96 6.938 6.96H111c19.157 0 34.688-15.582 34.688-34.801 0-19.22-15.531-34.801-34.688-34.801z"/>
        <path fill="#506E8D" d="M53.188 69.602h32.374v-4.64H53.188c-5.109 0-9.25 4.155-9.25 9.28 0 5.125 4.141 9.28 9.25 9.28h32.374v-4.64H53.188c-2.553 0-4.626-2.078-4.626-4.64 0-2.56 2.073-4.64 4.626-4.64"/>
        <mask id="b" fill="#fff">
            <use xlink:href="#a"/>
        </mask>
        <path fill="#CAF1FF" d="M2.313 71.922h106.374V2.32H2.314z" mask="url(#b)"/>
        <path fill="#FEFEFE" d="M49.574 46.837c0 4.886-3.947 8.846-8.817 8.846-4.868 0-8.816-3.96-8.816-8.846 0-4.887 3.948-8.847 8.816-8.847 4.87 0 8.817 3.96 8.817 8.847" mask="url(#b)"/>
        <path fill="#506E8D" d="M62.438 51.042h18.5a2.317 2.317 0 0 0 2.312-2.32 2.316 2.316 0 0 0-2.313-2.32h-18.5a2.314 2.314 0 0 0-2.312 2.32c0 1.28 1.034 2.32 2.313 2.32zm-27.02-10.399a6.879 6.879 0 0 1 3.895-1.202c3.831 0 6.937 3.116 6.937 6.96 0 3.845-3.106 6.96-6.938 6.96a6.879 6.879 0 0 1-3.894-1.201C36.396 50.457 37 48.508 37 46.402c0-2.107-.604-4.056-1.582-5.759zm-9.98 17.359c2.615 0 5-.903 6.937-2.371 1.938 1.468 4.322 2.37 6.938 2.37 6.387 0 11.562-5.191 11.562-11.6 0-6.408-5.175-11.6-11.563-11.6-2.615 0-5 .903-6.937 2.371-1.938-1.468-4.322-2.37-6.938-2.37-6.387 0-11.562 5.191-11.562 11.6 0 6.408 5.175 11.6 11.563 11.6zM4.625 13.92h101.75V4.64H4.625v9.28zm0 55.682h101.75V23.201H4.625v46.401zM106.375 0H4.625C2.072 0 0 2.079 0 4.64v64.962c0 2.562 2.072 4.64 4.625 4.64h101.75c2.553 0 4.625-2.078 4.625-4.64V4.64C111 2.08 108.928 0 106.375 0zM62.437 41.761h37a2.317 2.317 0 0 0 2.313-2.32 2.316 2.316 0 0 0-2.313-2.32h-37a2.314 2.314 0 0 0-2.312 2.32c0 1.281 1.034 2.32 2.313 2.32z" mask="url(#b)"/>
        <path fill="#F1F0F0" d="M113.313 25.52H87.874c-3.832 0-6.938 3.117-6.938 6.961 0 3.844 3.106 6.96 6.938 6.96h25.438c3.831 0 6.937-3.116 6.937-6.96s-3.106-6.96-6.938-6.96" mask="url(#b)"/>
        <path fill="#506E8D" d="M111 23.2H87.875c-5.108 0-9.25 4.156-9.25 9.281 0 5.125 4.142 9.28 9.25 9.28h19.034c2.107 9.297 10.376 16.24 20.278 16.24a2.314 2.314 0 0 0 2.313-2.32 2.314 2.314 0 0 0-2.313-2.32c-8.94 0-16.187-7.27-16.187-16.24H87.875c-2.553 0-4.625-2.079-4.625-4.64 0-2.561 2.072-4.64 4.625-4.64H111c17.88 0 32.375 14.542 32.375 32.481 0 17.936-14.495 32.481-32.375 32.481H67.062c-2.552 0-4.624-2.079-4.624-4.64 0-2.561 2.072-4.64 4.624-4.64H92.5v-4.64H67.062c-5.108 0-9.25 4.155-9.25 9.28 0 5.125 4.142 9.28 9.25 9.28H111c20.436 0 37-16.619 37-37.121 0-20.503-16.564-37.121-37-37.121" mask="url(#b)"/>
    </g>
</svg>
