<svg xmlns="http://www.w3.org/2000/svg" width="1440" height="330" viewBox="0 0 1440 330">
    <g fill="#FFF" fill-rule="nonzero" opacity=".1">
        <path d="M1549.055 173.549a108.303 108.303 0 0 0-21.774-38.729 103.387 103.387 0 0 0-34.952-25.64 111.821 111.821 0 0 0-46.984-9.414 124.372 124.372 0 0 0-53.206 10.612 110.596 110.596 0 0 0-38.144 28.902 124.198 124.198 0 0 0-23.247 42.94 174.242 174.242 0 0 0-7.817 52.766 176.621 176.621 0 0 0 7.571 52.767 116.559 116.559 0 0 0 5.116 11.891 46.221 46.221 0 0 1-12.687 5.863 78.679 78.679 0 0 1-9.045 1.487c-2.841.315-5.696.48-8.554.495a46.154 46.154 0 0 1-14.652-1.982 18.758 18.758 0 0 1-9.577-7.143 36.242 36.242 0 0 1-5.362-14.533 141.597 141.597 0 0 1-1.719-24.773V62.524a208.98 208.98 0 0 0-34.256-2.973 211.738 211.738 0 0 0-34.706 2.973v211.852c0 31.544 7.585 54.322 22.755 68.332 15.17 14.01 35.307 20.989 60.41 20.934 6.22 0 13.041-.33 20.463-.991a86.936 86.936 0 0 0 18.827-3.427 405.784 405.784 0 0 0 44.242-14.74 119.308 119.308 0 0 0 23.451 12.386 166.105 166.105 0 0 0 60.41 9.827 236 236 0 0 0 85.947-14.781 123.088 123.088 0 0 0-4.42-29.604 118.246 118.246 0 0 0-9.29-23.7 192.622 192.622 0 0 1-32.988 9.125 188.658 188.658 0 0 1-33.97 3.22c-20.245 0-36.548-4.445-48.908-13.336-12.36-8.89-19.182-23.19-20.464-42.899h162.36c.654-3.606 1.227-8.464 1.718-14.575.491-6.069.737-12.386.737-18.497a154.757 154.757 0 0 0-7.285-48.101zm-156.998 32.288c1.637-16.763 6.671-29.77 15.143-38.935 8.472-9.166 20.873-13.832 37.162-13.832 12.806-.68 25.196 4.692 33.52 14.533a62.867 62.867 0 0 1 12.933 38.234h-98.758zM1174.282 171.815a116.842 116.842 0 0 0-21.487-40.174 86.434 86.434 0 0 0-32.742-23.947 104.784 104.784 0 0 0-40.927-7.886 85.684 85.684 0 0 0-39.086 8.629c-10.226 4.586-18.801 12.242-24.556 21.924V62.648a211.007 211.007 0 0 0-34.747-2.973 208.25 208.25 0 0 0-34.216 2.973v289.763a177.843 177.843 0 0 0 20.464 6.193c7.49 1.776 15.348 3.303 23.492 4.418 8.145 1.115 16.371 2.065 24.188 2.725 7.818.66 15.594.95 22.756.95a179.615 179.615 0 0 0 60.654-9.579 126.41 126.41 0 0 0 45.47-27.374 117.134 117.134 0 0 0 28.404-43.188 159.182 159.182 0 0 0 9.741-57.474 186.338 186.338 0 0 0-7.408-57.267zm-82.632 117.961c-12.06 12.47-28.69 18.718-49.89 18.745-4.585 0-9.005 0-13.425-.495a49.914 49.914 0 0 1-12.278-2.477v-92.776c0-18.745 4.093-32.508 12.278-41.288 8.363-8.714 19.99-13.454 32.005-13.048 17.927 0 30.641 6.166 38.145 18.498 7.503 12.331 11.255 30.333 11.255 54.005.054 26.645-5.948 46.257-18.008 58.836h-.082zM887.054 124.457c-19.1-16.515-45.593-24.773-79.481-24.773-13.426.1-26.822 1.26-40.068 3.468a263.552 263.552 0 0 0-43.056 10.859 94.837 94.837 0 0 0 3.438 27.127 135.687 135.687 0 0 0 10.314 24.195 171.694 171.694 0 0 1 56.234-10.364c7.446-.046 14.886.437 22.264 1.445a44.752 44.752 0 0 1 16.863 5.698 29.5 29.5 0 0 1 10.804 11.602 41.595 41.595 0 0 1 4.093 19.24v5.905c-11.46-.963-21.896-1.445-31.31-1.445a184.085 184.085 0 0 0-39.126 4.129 113.997 113.997 0 0 0-35.402 13.79 77.595 77.595 0 0 0-25.948 25.64 73.752 73.752 0 0 0-10.027 39.72 88.98 88.98 0 0 0 8.185 39.926 69.104 69.104 0 0 0 23.001 26.631 97.428 97.428 0 0 0 35.689 14.823 220.112 220.112 0 0 0 45.757 4.417 281.7 281.7 0 0 0 54.843-4.748 394.135 394.135 0 0 0 41.582-10.404V203.4c0-36.17-9.55-62.484-28.65-78.944zm-38.84 184.519l-12.729 2.188a87.568 87.568 0 0 1-14.652 1.238c-4.093 0-9.25-.247-14.897-.743a53.48 53.48 0 0 1-16.167-4.129 32.291 32.291 0 0 1-12.974-10.157 31.419 31.419 0 0 1-5.361-19.694c0-12.827 4.638-22.117 13.915-27.87s21.91-8.63 37.899-8.63c4.103.029 8.201.277 12.278.744 4.584.495 8.827 1.073 12.729 1.734l-.041 65.319zM711.516 112.648a58.058 58.058 0 0 0-27.503-7.762 53.606 53.606 0 0 0-33.397 9.95 126.993 126.993 0 0 0-26.398 27.375l-1.228-8.63c-.491-3.468-1.064-6.894-1.678-10.363-.614-3.468-1.392-6.73-2.21-9.868a28.478 28.478 0 0 0-2.701-7.184 217.549 217.549 0 0 0-13.916-2.436 103.873 103.873 0 0 0-14.447-.99 128.17 128.17 0 0 0-14.406.742c-4.42.496-9.004 1.239-13.916 2.23v255.576a174.99 174.99 0 0 0 17.845 1.94 293 293 0 0 0 16.903.496c5.566 0 11.255 0 17.107-.495 5.911-.315 11.8-.963 17.64-1.94V239.94c0-17.782 2.033-31.544 6.098-41.289a53.884 53.884 0 0 1 15.43-22.171 42.07 42.07 0 0 1 19.563-9.084 111.716 111.716 0 0 1 18.581-1.734h8.186a66.223 66.223 0 0 1 11.991.99c6.344-18.496 3.11-50.701 2.456-54.005zM526.892 181.187a116.151 116.151 0 0 0-22.51-42.692 105.987 105.987 0 0 0-38.144-28.406 129.967 129.967 0 0 0-53.779-10.364 128.182 128.182 0 0 0-53.574 10.364 104.2 104.2 0 0 0-37.653 28.406 121.411 121.411 0 0 0-22.51 42.692 178.328 178.328 0 0 0-7.571 52.767 173.206 173.206 0 0 0 7.571 52.272 121.73 121.73 0 0 0 22.51 42.196 101.445 101.445 0 0 0 37.653 28.118 131.018 131.018 0 0 0 53.574 10.116 132.762 132.762 0 0 0 53.779-10.075 103.149 103.149 0 0 0 38.144-28.117 116.346 116.346 0 0 0 22.51-42.197 178.708 178.708 0 0 0 7.326-52.272 183.997 183.997 0 0 0-7.326-52.808zm-75.06 111.769c-7.995 13.762-21.105 20.644-39.332 20.644-18.226 0-31.186-6.882-38.88-20.644-7.995-13.763-11.992-33.417-11.992-58.96 0-25.544 3.997-45.184 11.991-58.92 7.995-13.762 20.955-20.644 38.881-20.644 17.927 0 31.037 6.882 39.332 20.645 7.994 13.763 11.991 33.402 11.991 58.918 0 25.517-3.997 45.17-11.991 58.96zM286.771 304.558l-12.483 2.188a82.415 82.415 0 0 1-14.406 1.239 58.163 58.163 0 0 1-16.166-1.982 23.143 23.143 0 0 1-11.46-7.39 36.342 36.342 0 0 1-7.121-14.782 101.81 101.81 0 0 1-2.415-24.773V159.015h59.14c.914-4.735 1.57-9.518 1.965-14.327.327-4.129.49-8.712.49-13.295s0-8.257-.49-12.386a116.56 116.56 0 0 0-1.965-13.295h-59.181V59.675h-11.255l-91.432 89.431 2.456 9.91h31.76v115.607c0 31.545 7.83 54.322 23.492 68.333 15.661 14.01 38.321 20.988 67.98 20.933a197.613 197.613 0 0 0 46.453-5.409c.286-2.312.532-4.706.696-7.142.163-2.436.245-5.533.245-9.125a124.477 124.477 0 0 0-1.432-18.002 98.811 98.811 0 0 0-4.87-19.653z"/>
        <path d="M1549.055 173.549a108.303 108.303 0 0 0-21.774-38.729 103.387 103.387 0 0 0-34.952-25.64 111.821 111.821 0 0 0-46.984-9.414 124.372 124.372 0 0 0-53.206 10.612 110.596 110.596 0 0 0-38.144 28.902 124.198 124.198 0 0 0-23.247 42.94 174.242 174.242 0 0 0-7.817 52.766 176.621 176.621 0 0 0 7.571 52.767 116.559 116.559 0 0 0 5.116 11.891 46.221 46.221 0 0 1-12.687 5.863 78.679 78.679 0 0 1-9.045 1.487c-2.841.315-5.696.48-8.554.495a46.154 46.154 0 0 1-14.652-1.982 18.758 18.758 0 0 1-9.577-7.143 36.242 36.242 0 0 1-5.362-14.533 141.597 141.597 0 0 1-1.719-24.773V62.524a208.98 208.98 0 0 0-34.256-2.973 211.738 211.738 0 0 0-34.706 2.973v211.852c0 31.544 7.585 54.322 22.755 68.332 15.17 14.01 35.307 20.989 60.41 20.934 6.22 0 13.041-.33 20.463-.991a86.936 86.936 0 0 0 18.827-3.427 405.784 405.784 0 0 0 44.242-14.74 119.308 119.308 0 0 0 23.451 12.386 166.105 166.105 0 0 0 60.41 9.827 236 236 0 0 0 85.947-14.781 123.088 123.088 0 0 0-4.42-29.604 118.246 118.246 0 0 0-9.29-23.7 192.622 192.622 0 0 1-32.988 9.125 188.658 188.658 0 0 1-33.97 3.22c-20.245 0-36.548-4.445-48.908-13.336-12.36-8.89-19.182-23.19-20.464-42.899h162.36c.654-3.606 1.227-8.464 1.718-14.575.491-6.069.737-12.386.737-18.497a154.757 154.757 0 0 0-7.285-48.101zm-156.998 32.288c1.637-16.763 6.671-29.77 15.143-38.935 8.472-9.166 20.873-13.832 37.162-13.832 12.806-.68 25.196 4.692 33.52 14.533a62.867 62.867 0 0 1 12.933 38.234h-98.758zM1174.282 171.815a116.842 116.842 0 0 0-21.487-40.174 86.434 86.434 0 0 0-32.742-23.947 104.784 104.784 0 0 0-40.927-7.886 85.684 85.684 0 0 0-39.086 8.629c-10.226 4.586-18.801 12.242-24.556 21.924V62.648a211.007 211.007 0 0 0-34.747-2.973 208.25 208.25 0 0 0-34.216 2.973v289.763a177.843 177.843 0 0 0 20.464 6.193c7.49 1.776 15.348 3.303 23.492 4.418 8.145 1.115 16.371 2.065 24.188 2.725 7.818.66 15.594.95 22.756.95a179.615 179.615 0 0 0 60.654-9.579 126.41 126.41 0 0 0 45.47-27.374 117.134 117.134 0 0 0 28.404-43.188 159.182 159.182 0 0 0 9.741-57.474 186.338 186.338 0 0 0-7.408-57.267zm-82.632 117.961c-12.06 12.47-28.69 18.718-49.89 18.745-4.585 0-9.005 0-13.425-.495a49.914 49.914 0 0 1-12.278-2.477v-92.776c0-18.745 4.093-32.508 12.278-41.288 8.363-8.714 19.99-13.454 32.005-13.048 17.927 0 30.641 6.166 38.145 18.498 7.503 12.331 11.255 30.333 11.255 54.005.054 26.645-5.948 46.257-18.008 58.836h-.082zM887.054 124.457c-19.1-16.515-45.593-24.773-79.481-24.773-13.426.1-26.822 1.26-40.068 3.468a263.552 263.552 0 0 0-43.056 10.859 94.837 94.837 0 0 0 3.438 27.127 135.687 135.687 0 0 0 10.314 24.195 171.694 171.694 0 0 1 56.234-10.364c7.446-.046 14.886.437 22.264 1.445a44.752 44.752 0 0 1 16.863 5.698 29.5 29.5 0 0 1 10.804 11.602 41.595 41.595 0 0 1 4.093 19.24v5.905c-11.46-.963-21.896-1.445-31.31-1.445a184.085 184.085 0 0 0-39.126 4.129 113.997 113.997 0 0 0-35.402 13.79 77.595 77.595 0 0 0-25.948 25.64 73.752 73.752 0 0 0-10.027 39.72 88.98 88.98 0 0 0 8.185 39.926 69.104 69.104 0 0 0 23.001 26.631 97.428 97.428 0 0 0 35.689 14.823 220.112 220.112 0 0 0 45.757 4.417 281.7 281.7 0 0 0 54.843-4.748 394.135 394.135 0 0 0 41.582-10.404V203.4c0-36.17-9.55-62.484-28.65-78.944zm-38.84 184.519l-12.729 2.188a87.568 87.568 0 0 1-14.652 1.238c-4.093 0-9.25-.247-14.897-.743a53.48 53.48 0 0 1-16.167-4.129 32.291 32.291 0 0 1-12.974-10.157 31.419 31.419 0 0 1-5.361-19.694c0-12.827 4.638-22.117 13.915-27.87s21.91-8.63 37.899-8.63c4.103.029 8.201.277 12.278.744 4.584.495 8.827 1.073 12.729 1.734l-.041 65.319zM711.516 112.648a58.058 58.058 0 0 0-27.503-7.762 53.606 53.606 0 0 0-33.397 9.95 126.993 126.993 0 0 0-26.398 27.375l-1.228-8.63c-.491-3.468-1.064-6.894-1.678-10.363-.614-3.468-1.392-6.73-2.21-9.868a28.478 28.478 0 0 0-2.701-7.184 217.549 217.549 0 0 0-13.916-2.436 103.873 103.873 0 0 0-14.447-.99 128.17 128.17 0 0 0-14.406.742c-4.42.496-9.004 1.239-13.916 2.23v255.576a174.99 174.99 0 0 0 17.845 1.94 293 293 0 0 0 16.903.496c5.566 0 11.255 0 17.107-.495 5.911-.315 11.8-.963 17.64-1.94V239.94c0-17.782 2.033-31.544 6.098-41.289a53.884 53.884 0 0 1 15.43-22.171 42.07 42.07 0 0 1 19.563-9.084 111.716 111.716 0 0 1 18.581-1.734h8.186a66.223 66.223 0 0 1 11.991.99c6.344-18.496 3.11-50.701 2.456-54.005zM526.892 181.187a116.151 116.151 0 0 0-22.51-42.692 105.987 105.987 0 0 0-38.144-28.406 129.967 129.967 0 0 0-53.779-10.364 128.182 128.182 0 0 0-53.574 10.364 104.2 104.2 0 0 0-37.653 28.406 121.411 121.411 0 0 0-22.51 42.692 178.328 178.328 0 0 0-7.571 52.767 173.206 173.206 0 0 0 7.571 52.272 121.73 121.73 0 0 0 22.51 42.196 101.445 101.445 0 0 0 37.653 28.118 131.018 131.018 0 0 0 53.574 10.116 132.762 132.762 0 0 0 53.779-10.075 103.149 103.149 0 0 0 38.144-28.117 116.346 116.346 0 0 0 22.51-42.197 178.708 178.708 0 0 0 7.326-52.272 183.997 183.997 0 0 0-7.326-52.808zm-75.06 111.769c-7.995 13.762-21.105 20.644-39.332 20.644-18.226 0-31.186-6.882-38.88-20.644-7.995-13.763-11.992-33.417-11.992-58.96 0-25.544 3.997-45.184 11.991-58.92 7.995-13.762 20.955-20.644 38.881-20.644 17.927 0 31.037 6.882 39.332 20.645 7.994 13.763 11.991 33.402 11.991 58.918 0 25.517-3.997 45.17-11.991 58.96zM286.771 304.558l-12.483 2.188a82.415 82.415 0 0 1-14.406 1.239 58.163 58.163 0 0 1-16.166-1.982 23.143 23.143 0 0 1-11.46-7.39 36.342 36.342 0 0 1-7.121-14.782 101.81 101.81 0 0 1-2.415-24.773V159.015h59.14c.914-4.735 1.57-9.518 1.965-14.327.327-4.129.49-8.712.49-13.295s0-8.257-.49-12.386a116.56 116.56 0 0 0-1.965-13.295h-59.181V59.675h-11.255l-91.432 89.431 2.456 9.91h31.76v115.607c0 31.545 7.83 54.322 23.492 68.333 15.661 14.01 38.321 20.988 67.98 20.933a197.613 197.613 0 0 0 46.453-5.409c.286-2.312.532-4.706.696-7.142.163-2.436.245-5.533.245-9.125a124.477 124.477 0 0 0-1.432-18.002 98.811 98.811 0 0 0-4.87-19.653zM103.13 184.903a91.345 91.345 0 0 0-25.662-19.488c-10.095-5.23-21.35-10.322-33.765-15.277L14.4 138.784c-4.911-1.982-9.822-4.129-14.652-6.152a59.928 59.928 0 0 1-13.22-7.886 34.576 34.576 0 0 1-9.29-11.354 35.731 35.731 0 0 1-3.479-16.516 39.927 39.927 0 0 1 4.42-19.983A31.211 31.211 0 0 1-10.565 65.29a46.224 46.224 0 0 1 15.43-5.408 97.998 97.998 0 0 1 16.902-1.487c8.202-.059 16.401.355 24.557 1.239 6.495.68 12.945 1.741 19.317 3.18a115.275 115.275 0 0 1 16.167 4.954 752.29 752.29 0 0 1 14.897 5.904 177.374 177.374 0 0 0 15.676-56.235 350.302 350.302 0 0 0-45.716-12.84A234.313 234.313 0 0 0 19.965.136a171.863 171.863 0 0 0-49.604 6.524 106.374 106.374 0 0 0-37.653 19.736A87.875 87.875 0 0 0-91.48 58.726a121.727 121.727 0 0 0-3.397 79.934 75.19 75.19 0 0 0 14.407 25.393 87.772 87.772 0 0 0 22.51 18.29 216.044 216.044 0 0 0 29.836 14.039l29.836 11.354c5.893 2.27 11.582 4.707 17.148 7.143a64.606 64.606 0 0 1 14.898 9.166 43.855 43.855 0 0 1 10.764 13.295 42.221 42.221 0 0 1 4.093 19.736c0 15.8-5.88 27.567-17.64 35.302-11.76 7.734-27.885 11.588-48.376 11.56a171.344 171.344 0 0 1-38.636-4.129 252.36 252.36 0 0 1-38.43-12.386c-3.63 10.57-6.74 21.016-9.332 31.338a213.703 213.703 0 0 0-5.402 29.852c8.185 3.303 15.961 6.11 23.492 8.257a229.411 229.411 0 0 0 22.756 5.698 222.424 222.424 0 0 0 24.229 3.22c8.512.62 18.09.95 28.649.95a184.26 184.26 0 0 0 57.953-8.258 124.376 124.376 0 0 0 42.319-23.204 99.034 99.034 0 0 0 26.153-35.55 113.622 113.622 0 0 0 9.004-45.87 122.504 122.504 0 0 0-5.853-40.67 82.746 82.746 0 0 0-16.371-28.283z"/>
    </g>
</svg>
