<svg xmlns="http://www.w3.org/2000/svg" width="24" height="24" viewBox="0 0 24 24">
    <path fill="#9FA2A2" fill-rule="evenodd" d="M23.338 2.388a9.414 9.414 0 0 1-3.129 1.285C19.313 2.643 18.033 2 16.615 2c-2.717 0-4.922 2.374-4.922 5.301 0 .416.043.82.127 1.207C7.728 8.287 4.1 6.18 1.67 2.968a5.608 5.608 0 0 0-.666 2.668c0 1.838.87 3.461 2.191 4.412a4.662 4.662 0 0 1-2.232-.66v.064c0 2.57 1.698 4.713 3.952 5.198a4.577 4.577 0 0 1-2.224.093c.626 2.105 2.444 3.639 4.599 3.68-1.685 1.422-3.81 2.27-6.115 2.27-.398 0-.79-.024-1.175-.073C2.179 22.122 4.768 23 7.548 23c9.058 0 14.01-8.077 14.01-15.083 0-.23-.005-.46-.013-.687A10.415 10.415 0 0 0 24 4.486a9.293 9.293 0 0 1-2.827.834c1.017-.655 1.797-1.694 2.165-2.932"/>
</svg>
