<svg xmlns="http://www.w3.org/2000/svg" width="24" height="24" viewBox="0 0 24 24">
    <g fill="#9FA2A2" fill-rule="evenodd">
        <path d="M12 6.181c-2.267 0-4.112 1.757-4.112 3.916S9.733 14.012 12 14.012c2.267 0 4.112-1.756 4.112-3.915s-1.845-3.916-4.112-3.916zm0 6.688c-1.606 0-2.912-1.243-2.912-2.772 0-1.529 1.306-2.773 2.911-2.773s2.912 1.244 2.912 2.773c0 1.529-1.307 2.772-2.912 2.772z"/>
        <path d="M19.253 3.19C17.315 1.343 14.74.326 12 .326c-2.74 0-5.315 1.016-7.254 2.862-4 3.81-4 10.007 0 13.816l6.83 6.504c.117.111.27.167.424.167a.614.614 0 0 0 .425-.167l6.828-6.504c1.938-1.845 3.005-4.298 3.005-6.908 0-2.61-1.067-5.063-3.004-6.908zm-.85 13.007L12 22.297l-6.405-6.1c-3.531-3.364-3.531-8.836 0-12.2C7.305 2.367 9.58 1.47 11.999 1.47s4.695.897 6.406 2.527c1.71 1.63 2.652 3.795 2.652 6.1 0 2.304-.943 4.47-2.653 6.1z"/>
    </g>
</svg>
