<?xml version="1.0" encoding="utf-8"?>
<!-- Generator: Adobe Illustrator 16.0.0, SVG Export Plug-In . SVG Version: 6.00 Build 0)  -->
<!DOCTYPE svg PUBLIC "-//W3C//DTD SVG 1.1//EN" "http://www.w3.org/Graphics/SVG/1.1/DTD/svg11.dtd">
<svg version="1.1" id="Layer_1" xmlns="http://www.w3.org/2000/svg" xmlns:xlink="http://www.w3.org/1999/xlink" x="0px" y="0px"
	 width="24px" height="24px" viewBox="0 0 24 24" enable-background="new 0 0 24 24" xml:space="preserve">
<g>
	<path fill="#A1A1A1" d="M22.2,20.4H7.8c-0.332,0-0.6,0.269-0.6,0.6s0.269,0.6,0.6,0.6h14.4c0.331,0,0.6-0.269,0.6-0.6
		S22.531,20.4,22.2,20.4z"/>
	<path fill="#A1A1A1" d="M7.8,4.8h14.4c0.331,0,0.6-0.269,0.6-0.6s-0.269-0.6-0.6-0.6H7.8c-0.332,0-0.6,0.269-0.6,0.6
		S7.468,4.8,7.8,4.8z"/>
	<path fill="#A1A1A1" d="M22.2,12H7.8c-0.332,0-0.6,0.269-0.6,0.6c0,0.331,0.269,0.6,0.6,0.6h14.4c0.331,0,0.6-0.269,0.6-0.6
		C22.8,12.268,22.531,12,22.2,12z"/>
	<circle fill="#A1A1A1" cx="3" cy="4.2" r="1.8"/>
	<circle fill="#A1A1A1" cx="3" cy="12.6" r="1.8"/>
	<circle fill="#A1A1A1" cx="3" cy="21" r="1.8"/>
</g>
</svg>
